<svg xmlns="http://www.w3.org/2000/svg" version="1.0" width="1280.000000pt" height="720.000000pt" viewBox="0 0 1280.000000 720.000000" preserveAspectRatio="xMidYMid meet">

<g transform="translate(0.000000,720.000000) scale(0.100000,-0.100000)" fill="#939393" stroke="none">
<path d="M6636 6561 c-400 -230 -731 -422 -736 -427 -7 -7 500 -899 1253 -2205 56 -97 257 -446 447 -777 l345 -602 988 0 c543 0 987 2 987 5 0 2 -192 336 -426 742 -235 406 -484 837 -554 958 -69 121 -345 598 -612 1060 -267 462 -588 1018 -713 1235 -125 217 -233 403 -240 412 -10 15 -88 -27 -739 -401z" fill="#939393"/>
<path d="M5325 5224 c-187 -108 -515 -298 -730 -422 -214 -123 -391 -226 -393 -227 -1 -1 87 -157 196 -346 110 -189 373 -645 586 -1012 l386 -668 0 -210 0 -209 210 0 210 0 0 210 0 210 770 0 c424 0 770 2 770 5 0 4 -174 307 -816 1420 -95 165 -321 556 -501 869 -180 313 -333 571 -338 573 -6 2 -163 -85 -350 -193z" fill="#939393"/>
<path d="M3560 3686 c-212 -122 -542 -314 -735 -425 -192 -111 -351 -204 -353 -206 -2 -2 61 -116 140 -254 l143 -251 984 0 c932 0 983 1 976 18 -3 9 -70 127 -147 262 -278 483 -620 1075 -622 1077 -1 1 -175 -98 -386 -221z" fill="#939393"/>
<path d="M4740 2194 l0 -355 -42 26 c-67 41 -146 74 -233 98 -115 31 -335 31 -450 0 -382 -104 -638 -415 -662 -803 -14 -235 71 -466 236 -642 121 -129 241 -204 408 -254 77 -24 106 -27 233 -28 176 -1 263 19 413 93 l97 49 0 -54 0 -54 210 0 210 0 0 1140 0 1140 -210 0 -210 0 0 -356z m-347 -615 c228 -76 378 -314 338 -538 -50 -278 -330 -465 -595 -396 -95 25 -165 64 -232 130 -264 259 -155 691 204 806 81 26 205 25 285 -2z" fill="#939393"/>
<path d="M7340 2199 c0 -193 -3 -349 -7 -347 -5 2 -40 20 -80 41 -40 20 -112 49 -160 64 -79 24 -104 26 -248 26 -146 1 -168 -2 -248 -26 -165 -51 -285 -125 -403 -250 -323 -339 -312 -879 26 -1217 248 -248 604 -325 938 -202 46 17 105 45 133 61 l49 31 0 -55 0 -55 210 0 210 0 0 1140 0 1140 -210 0 -210 0 0 -351z m-348 -619 c134 -41 243 -137 307 -270 35 -73 36 -78 36 -195 0 -118 -1 -121 -38 -199 -100 -210 -343 -328 -556 -271 -125 33 -225 105 -293 209 -174 269 -45 620 267 728 70 24 195 23 277 -2z" fill="#939393"/>
<path d="M2118 1975 c-575 -109 -885 -734 -623 -1255 81 -161 233 -313 395 -395 250 -127 543 -125 803 4 l97 48 0 -54 0 -53 205 0 205 0 0 855 0 855 -202 -2 -203 -3 -3 -67 -3 -67 -47 29 c-58 35 -135 67 -227 92 -95 26 -294 32 -397 13z m298 -389 c84 -22 169 -74 234 -142 184 -191 184 -467 0 -658 -242 -252 -647 -186 -798 131 -36 77 -37 80 -37 198 0 118 1 121 37 198 84 176 252 285 438 286 41 1 98 -5 126 -13z" fill="#939393"/>
<path d="M8600 1971 c-395 -87 -672 -410 -697 -811 -14 -235 71 -466 236 -642 121 -129 241 -204 408 -254 76 -23 107 -27 228 -28 174 -1 256 17 402 89 l103 51 0 -53 0 -53 210 0 210 0 0 856 0 855 -207 -3 -208 -3 -3 -62 c-2 -35 -5 -63 -7 -63 -2 0 -36 18 -77 39 -117 64 -230 92 -383 97 -102 3 -148 0 -215 -15z m392 -413 c314 -149 386 -542 144 -783 -239 -239 -632 -168 -780 142 -123 255 22 572 304 665 41 14 80 17 155 15 92 -2 107 -5 177 -39z" fill="#939393"/>
<path d="M10445 1980 c-215 -34 -403 -153 -482 -305 -83 -161 -68 -381 37 -518 101 -130 225 -179 625 -247 257 -43 315 -76 315 -178 0 -54 -45 -114 -112 -149 -49 -26 -62 -28 -168 -28 -90 0 -127 4 -168 20 -98 36 -163 111 -178 204 l-7 41 -220 0 -220 0 6 -59 c20 -193 151 -361 353 -452 126 -57 219 -73 419 -73 192 1 260 11 388 57 191 70 314 204 353 385 51 244 -38 428 -260 537 -106 52 -152 65 -381 106 -216 38 -280 54 -333 85 -112 66 -84 199 50 239 59 17 233 20 289 5 84 -23 135 -82 147 -167 l7 -48 213 -3 212 -2 0 29 c0 16 -9 60 -21 97 -61 200 -204 332 -434 399 -74 22 -115 27 -230 30 -77 2 -167 0 -200 -5z" fill="#939393"/>
<path d="M5370 1120 l0 -850 210 0 210 0 0 850 0 850 -210 0 -210 0 0 -850z" fill="#939393"/>
</g>
</svg>