<svg xmlns="http://www.w3.org/2000/svg" version="1.0" width="3840.000000pt" height="2160.000000pt" viewBox="0 0 3840.000000 2160.000000" preserveAspectRatio="xMidYMid meet">

<g transform="translate(0.000000,2160.000000) scale(0.100000,-0.100000)" fill="#939393" stroke="none">
<path d="M9206 20628 c-9 -24 -876 -2336 -1926 -5138 l-1909 -5095 1211 -3 c751 -1 1214 2 1217 7 3 6 384 1023 846 2261 462 1239 841 2241 843 2228 1 -12 -63 -1022 -143 -2243 -80 -1222 -145 -2229 -145 -2238 0 -16 80 -17 1307 -15 l1306 3 1919 5119 c1054 2816 1920 5127 1924 5138 5 17 -34 18 -1208 18 l-1213 0 -860 -2294 c-473 -1262 -861 -2289 -863 -2283 -1 7 63 1021 143 2255 80 1233 145 2260 145 2282 l0 40 -1289 0 -1289 0 -16 -42z" fill="#939393"/>
<path d="M15977 20663 c-7 -12 -3847 -10260 -3847 -10267 0 -3 545 -6 1211 -6 l1210 0 14 33 c21 50 3827 10210 3833 10230 4 16 -58 17 -1206 17 -666 0 -1213 -3 -1215 -7z" fill="#939393"/>
<path d="M16898 15537 c-1050 -2823 -1908 -5135 -1908 -5140 0 -4 545 -6 1212 -5 l1212 3 811 2136 c445 1175 813 2132 816 2125 4 -6 10 -171 13 -366 4 -195 9 -389 11 -430 3 -41 7 -196 10 -345 3 -148 7 -342 10 -430 8 -276 15 -521 20 -775 3 -135 7 -292 10 -350 3 -58 7 -244 10 -415 3 -170 8 -332 10 -360 2 -27 7 -212 12 -410 4 -198 7 -364 7 -370 1 -7 585 -9 1736 -7 1121 1 1726 -1 1710 -8 -14 -5 -398 -110 -855 -234 -456 -124 -3379 -916 -6495 -1761 -3116 -845 -5734 -1552 -5818 -1571 -763 -173 -1561 -197 -2282 -68 -969 174 -1788 628 -2316 1285 -400 498 -630 1069 -720 1789 -21 174 -30 656 -15 861 68 928 369 1953 897 3048 46 96 83 175 82 177 -6 5 -460 -542 -754 -911 -2215 -2770 -3593 -5273 -3973 -7215 -79 -403 -106 -680 -105 -1070 0 -347 14 -500 69 -775 57 -284 130 -503 251 -755 236 -487 548 -847 1079 -1243 274 -204 518 -354 830 -507 587 -289 1150 -445 1860 -516 189 -19 757 -27 950 -14 1341 92 2595 453 4885 1405 1276 530 5377 2293 11295 4853 2420 1047 2979 1289 5565 2410 8173 3542 10931 4742 10987 4779 58 38 96 91 91 125 -5 40 -61 60 -148 55 -78 -5 -54 1 -2440 -646 -547 -148 -1544 -418 -2215 -600 -671 -182 -2356 -639 -3745 -1015 -1388 -377 -2526 -684 -2527 -682 -2 2 60 179 137 395 77 215 140 394 140 396 0 3 -636 6 -1413 7 l-1414 3 167 445 c91 245 300 804 464 1243 l298 797 1167 0 1166 0 355 946 c195 520 357 950 358 955 2 5 -476 9 -1162 9 -641 0 -1166 1 -1166 3 0 1 180 489 399 1082 l399 1080 1230 3 1231 2 19 53 c11 28 147 385 302 792 155 407 293 768 306 803 l23 62 -3703 0 -3703 0 -1263 -1531 c-694 -841 -1264 -1529 -1265 -1527 -2 2 254 681 569 1508 315 828 576 1515 580 1528 l7 22 -1228 0 -1228 0 -1907 -5133z m6422 234 c-963 -2571 -1752 -4676 -1755 -4679 -3 -3 -5 53 -5 124 0 71 -3 161 -5 199 -3 39 -9 255 -15 480 -6 226 -12 462 -15 525 -3 63 -7 221 -10 350 -3 129 -7 282 -10 340 -3 58 -7 215 -10 350 -3 135 -7 288 -10 340 -3 52 -7 210 -10 350 -3 140 -8 293 -10 340 -2 47 -7 200 -10 340 -3 140 -7 298 -10 350 -3 52 -7 205 -10 340 -3 135 -7 292 -10 350 -3 58 -7 209 -11 335 l-6 230 1828 2008 c1005 1104 1828 2006 1830 2004 2 -1 -784 -2106 -1746 -4676z" fill="#939393"/>
</g>
</svg>