<svg xmlns="http://www.w3.org/2000/svg" version="1.0" width="3840.000000pt" height="2160.000000pt" viewBox="0 0 3840.000000 2160.000000" preserveAspectRatio="xMidYMid meet">

<g transform="translate(0.000000,2160.000000) scale(0.100000,-0.100000)" fill="#939393" stroke="none">
<path d="M37565 20273 c-297 -41 -799 -324 -1240 -699 -135 -114 -392 -373 -506 -509 -354 -425 -631 -893 -932 -1580 -56 -128 -237 -563 -237 -570 0 -3 -18 -46 -39 -97 -22 -51 -69 -164 -106 -251 -199 -478 -340 -744 -549 -1037 -361 -508 -850 -924 -1313 -1115 -184 -77 -325 -114 -508 -136 -126 -15 -550 -6 -695 15 -540 77 -1043 258 -1701 611 -587 315 -1103 677 -1634 1145 -66 58 -147 128 -180 155 -33 28 -139 119 -235 204 -424 373 -685 596 -955 820 -52 42 -370 294 -450 356 -888 684 -1736 1217 -2437 1531 -57 25 -116 52 -133 59 -16 8 -69 30 -117 49 -520 213 -1009 341 -1431 374 -59 5 -109 11 -111 13 -1 2 -38 72 -80 154 -98 190 -210 375 -258 427 -34 37 -40 40 -75 34 -60 -11 -133 -68 -223 -174 -169 -198 -206 -232 -253 -232 -47 0 -89 39 -221 204 -152 190 -199 219 -260 166 -37 -33 -81 -104 -191 -315 -88 -167 -144 -254 -213 -333 -66 -76 -128 -119 -291 -202 -198 -101 -270 -186 -292 -348 -33 -244 -76 -318 -269 -463 -178 -133 -215 -191 -214 -329 1 -165 57 -239 312 -411 152 -102 183 -129 347 -294 164 -166 187 -186 260 -221 74 -36 86 -39 160 -38 60 1 118 12 230 42 274 74 344 77 520 22 162 -51 233 -82 292 -130 100 -80 140 -194 130 -370 -12 -215 -108 -331 -264 -317 -32 2 -114 17 -183 32 -216 46 -299 56 -520 62 -262 7 -430 -13 -720 -83 -386 -94 -668 -285 -798 -541 -32 -62 -70 -203 -78 -285 -24 -272 199 -569 514 -685 71 -26 87 -28 217 -28 155 1 188 10 244 66 53 53 67 93 106 304 21 113 48 177 92 215 29 26 42 30 89 30 82 0 207 -37 359 -105 56 -25 359 -167 465 -217 58 -28 134 -63 170 -78 36 -16 108 -47 160 -70 635 -277 1161 -376 1631 -305 313 47 574 183 820 427 145 145 157 149 255 98 90 -48 203 -149 564 -505 441 -435 544 -529 785 -715 233 -180 523 -359 785 -483 616 -292 1301 -458 2175 -527 77 -6 313 -17 525 -25 339 -12 399 -17 500 -39 542 -116 1070 -462 1385 -906 160 -227 332 -578 530 -1085 344 -880 850 -1626 1728 -2548 168 -176 234 -232 754 -636 254 -198 263 -206 280 -255 15 -45 17 -90 14 -411 -3 -372 5 -513 39 -755 93 -647 368 -1054 800 -1183 171 -52 352 -60 422 -21 18 11 41 36 51 57 17 35 18 54 8 339 -15 433 -2 540 91 747 44 97 54 150 40 221 -14 79 -36 122 -156 315 -119 192 -175 301 -216 425 -47 139 -60 225 -70 450 -5 118 -15 227 -24 257 -43 156 -126 250 -366 409 -240 159 -319 239 -432 434 -30 52 -75 129 -99 170 -83 140 -121 232 -143 350 -13 66 -16 164 -16 509 0 534 -15 807 -71 1251 -90 732 -260 1372 -477 1805 -56 114 -79 146 -207 300 -58 69 -111 139 -120 155 -34 67 -12 107 104 185 522 354 952 792 1140 1162 22 43 88 191 146 328 601 1420 944 2043 1360 2473 210 218 646 530 942 674 705 345 917 470 1083 637 120 120 213 268 277 436 52 136 68 225 67 370 0 160 -23 241 -96 351 -125 187 -322 270 -563 237z" fill="#939393"/>
<path d="M270 5965 l0 -4595 1260 0 1260 0 0 1155 0 1155 1348 2 1347 3 95 33 c117 41 185 78 273 149 121 99 216 242 269 406 l23 72 0 2775 0 2775 -23 70 c-95 293 -293 486 -581 568 l-76 22 -2597 3 -2598 2 0 -4595z m3117 3456 c125 -59 217 -176 243 -311 6 -34 10 -729 10 -1984 0 -2114 3 -1992 -57 -2096 -41 -70 -117 -138 -191 -173 l-67 -32 -267 -3 -268 -3 0 2321 0 2321 263 -3 262 -3 72 -34z" fill="#939393"/>
<path d="M7010 6286 l0 -4274 26 -88 c63 -219 203 -386 401 -481 154 -74 -79 -67 2473 -71 1638 -2 2313 0 2360 8 295 51 525 264 600 554 20 79 20 96 20 4353 l0 4273 -1255 0 -1255 0 0 -3839 c0 -2536 -3 -3856 -10 -3891 -33 -172 -179 -317 -350 -345 -232 -39 -457 127 -489 362 -6 42 -8 1545 -7 3878 2 2096 1 3816 -1 3823 -4 9 -265 12 -1259 12 l-1254 0 0 -4274z" fill="#939393"/>
<path d="M14462 10549 c-284 -37 -542 -234 -648 -497 -13 -32 -31 -85 -41 -118 -17 -56 -18 -262 -21 -4311 l-2 -4253 1260 0 1260 0 2 3883 3 3882 23 56 c34 81 89 148 160 196 83 56 127 68 248 68 96 0 103 -2 176 -38 89 -44 161 -116 205 -205 l28 -57 3 -3892 2 -3893 1255 0 1255 0 2 3878 3 3877 23 56 c87 215 295 321 517 264 153 -40 279 -181 305 -342 6 -36 10 -1510 10 -3895 l0 -3838 1260 0 1260 0 -3 4243 c-2 4057 -3 4245 -21 4312 -25 98 -95 239 -159 321 -105 134 -269 241 -438 286 l-84 23 -3890 1 c-2139 1 -3918 -2 -3953 -7z" fill="#939393"/>
<path d="M24560 10548 c-84 -12 -219 -59 -288 -100 -218 -132 -358 -335 -401 -582 -8 -41 -11 -1374 -11 -4278 l0 -4218 1255 2 1256 3 -1 1137 c0 625 3 1144 6 1152 5 14 53 16 430 16 l424 0 0 -1155 0 -1155 1260 0 1260 0 -2 4243 -3 4242 -22 76 c-98 343 -358 575 -695 619 -96 12 -4380 11 -4468 -2z m2315 -1098 c136 -22 252 -111 314 -240 l36 -75 3 -2162 2 -2163 -424 0 c-374 0 -425 2 -430 16 -10 27 -6 4183 4 4259 26 179 157 323 330 361 70 16 91 16 165 4z" fill="#939393"/>
</g>
</svg>