<svg xmlns="http://www.w3.org/2000/svg" version="1.0" width="2560.000000pt" height="1661.000000pt" viewBox="0 0 2560.000000 1661.000000" preserveAspectRatio="xMidYMid meet">

<g transform="translate(0.000000,1661.000000) scale(0.100000,-0.100000)" fill="#939393" stroke="none">
<path d="M12637 16588 c-48 -5 -127 -19 -175 -32 -81 -21 -11895 -4950 -12101 -5048 -66 -32 -101 -57 -160 -117 -151 -151 -214 -347 -177 -550 36 -200 161 -364 346 -454 178 -87 11995 -5021 12079 -5043 124 -34 266 -48 421 -40 150 7 244 23 347 59 37 13 851 351 1808 752 2334 976 5429 2270 8025 3355 1174 491 2167 908 2205 928 104 53 210 163 264 272 92 187 89 389 -7 575 -43 83 -162 207 -237 247 -28 15 -2754 1157 -6060 2538 -4110 1718 -6034 2517 -6090 2530 -154 37 -316 46 -488 28z m355 -1482 c40 -8 102 -25 138 -39 36 -13 821 -341 1745 -727 924 -386 1876 -784 2115 -884 4783 -1998 5796 -2424 5822 -2448 36 -33 39 -85 6 -115 -33 -30 -34 -30 -633 -281 -302 -126 -2462 -1030 -4800 -2008 -2611 -1092 -4285 -1787 -4340 -1802 -76 -21 -113 -24 -240 -25 -104 0 -173 5 -224 17 -49 11 -1399 570 -4010 1663 -2165 905 -4127 1726 -4361 1823 -1494 624 -1391 580 -1428 613 -33 30 -30 82 7 115 18 18 331 154 912 396 486 203 1118 467 1404 587 286 119 1220 510 2077 868 856 357 1679 702 1830 764 2528 1058 3450 1442 3483 1454 127 43 354 56 497 29z" fill="#939393"/>
<path d="M12671 13638 c-41 -8 -4350 -1799 -5701 -2371 -110 -46 -156 -71 -191 -104 -127 -119 -124 -313 6 -431 49 -44 121 -76 1206 -529 635 -265 1930 -807 2879 -1203 949 -397 1750 -728 1780 -736 68 -18 227 -18 300 0 30 7 1209 496 2620 1086 1411 590 2704 1131 2875 1202 364 152 393 170 442 276 64 138 5 314 -130 383 -21 11 -204 89 -405 173 -202 85 -1492 624 -2867 1199 -1607 672 -2521 1049 -2559 1056 -71 13 -180 12 -255 -1z m249 -1488 c57 -22 2765 -1153 2803 -1171 47 -21 32 -48 -43 -79 -36 -15 -674 -282 -1419 -594 -745 -312 -1374 -572 -1398 -578 -96 -24 43 -78 -2023 787 -201 84 -504 211 -675 283 -251 104 -311 133 -313 149 -3 18 16 29 130 77 961 405 2732 1139 2763 1146 50 10 117 3 175 -20z" fill="#939393"/>
<path d="M12620 2330 l0 -2230 525 0 525 0 2 293 3 292 29 -55 c130 -247 372 -441 677 -540 157 -52 246 -64 444 -64 203 0 336 20 493 75 479 169 815 585 947 1174 54 242 70 550 40 782 -85 648 -468 1176 -975 1346 -156 52 -230 62 -445 62 -287 -1 -459 -37 -671 -140 -137 -66 -244 -146 -357 -265 -47 -49 -88 -90 -92 -90 -3 0 -5 358 -5 795 l0 795 -570 0 -570 0 0 -2230z m2008 279 c75 -18 202 -82 263 -132 195 -160 301 -447 286 -775 -21 -455 -228 -763 -564 -838 -102 -22 -264 -16 -353 15 -244 84 -428 304 -501 596 -11 44 -23 134 -26 200 -24 496 231 883 621 946 62 10 209 3 274 -12z" fill="#939393"/>
<path d="M8650 3459 c-178 -21 -376 -78 -500 -146 -206 -112 -368 -271 -476 -468 l-39 -70 -3 308 -2 307 -520 0 -520 0 0 -1650 0 -1650 569 0 570 0 4 822 c5 879 5 888 57 1093 27 106 107 267 164 332 94 106 220 166 374 179 239 20 401 -105 475 -365 21 -75 22 -89 27 -1066 l5 -990 566 -3 567 -2 5 802 c5 866 8 911 61 1113 80 300 251 474 499 507 236 32 406 -68 487 -283 54 -146 53 -129 57 -1171 l4 -968 570 0 569 0 0 1013 c0 1040 -6 1255 -40 1462 -92 569 -372 838 -929 894 -571 59 -1048 -142 -1332 -560 l-41 -60 -28 60 c-63 133 -187 281 -306 367 -223 160 -556 232 -894 193z" fill="#939393"/>
<path d="M18429 3455 c-318 -50 -570 -249 -750 -594 l-44 -83 -3 306 -2 306 -520 0 -520 0 0 -1650 0 -1650 570 0 569 0 4 813 c3 777 4 816 24 907 50 226 119 367 243 491 73 73 101 94 180 132 151 72 203 82 430 81 134 0 216 -5 263 -16 l67 -15 0 478 0 478 -32 6 c-158 27 -344 31 -479 10z" fill="#939393"/>
<path d="M20745 3464 c-346 -34 -565 -90 -803 -204 -605 -290 -933 -827 -932 -1523 1 -483 154 -873 464 -1182 267 -266 594 -426 1026 -501 181 -32 493 -43 675 -25 797 81 1372 494 1584 1137 93 284 112 663 47 967 -152 717 -703 1193 -1517 1312 -100 15 -461 27 -544 19z m410 -777 c361 -118 577 -503 551 -983 -26 -495 -248 -833 -601 -920 -108 -27 -280 -25 -375 4 -311 96 -533 376 -595 752 -31 180 -11 430 46 605 54 162 170 336 284 424 73 56 176 107 268 132 107 29 310 22 422 -14z" fill="#939393"/>
<path d="M2750 2423 c0 -592 4 -1011 10 -1078 70 -736 516 -1177 1320 -1302 165 -26 596 -25 765 1 723 111 1165 493 1289 1116 32 160 36 307 36 1268 l0 962 -570 0 -570 0 0 -927 c0 -526 -5 -969 -10 -1023 -34 -333 -158 -514 -395 -575 -78 -20 -252 -20 -330 0 -231 60 -356 233 -395 545 -6 53 -10 440 -10 1032 l0 948 -570 0 -570 0 0 -967z" fill="#939393"/>
</g>
</svg>